<svg width="262" height="122" viewBox="0 0 262 122" fill="none" xmlns="http://www.w3.org/2000/svg">
<path d="M67.2828 59.0186C67.1135 59.0186 66.9894 59.1694 67.0007 59.3319C67.3505 62.6163 69.133 65.4481 71.6828 67.1889V59.0186H67.2828Z" fill="#FF0B4A"/>
<path d="M71.6836 59.0186V67.1889C73.2744 68.2799 75.1698 68.9298 77.2118 68.9878V59.0186H71.6836Z" fill="#FF9C00"/>
<path d="M77.2105 68.9878C77.3008 68.9878 77.4023 68.9994 77.4926 68.9994C79.3992 68.9994 81.1931 68.4772 82.7275 67.5603V59.0186H77.1992V68.9878H77.2105Z" fill="#F6C900"/>
<path d="M87.9976 59.3159C88.0204 59.1404 87.8839 59 87.7133 59H82.6982V67.6115C85.5868 65.9032 87.6224 62.8611 87.9976 59.3159Z" fill="#00E586"/>
<g filter="url(#filter0_f_69_2424)">
<path fill-rule="evenodd" clip-rule="evenodd" d="M66.5005 44.5629C66.6409 44.3111 66.4604 44 66.174 44H61.1972C61.0575 44 60.9294 44.0784 60.8649 44.2033L55.6075 54.3874C55.4676 54.6585 55.0829 54.6585 54.9429 54.3874L49.6856 44.2033C49.6211 44.0784 49.493 44 49.3533 44H44.3752C44.089 44 43.9085 44.3105 44.0483 44.5623L52.6424 60.0451C52.6737 60.1015 52.6902 60.165 52.6902 60.2296V70.0667C52.6902 70.2753 52.8579 70.4444 53.0648 70.4444H57.4482C57.6551 70.4444 57.8228 70.2753 57.8228 70.0667V60.23C57.8228 60.1652 57.8394 60.1014 57.8709 60.0449L66.5005 44.5629ZM102.859 51.0267C100.581 51.0267 98.823 51.7341 97.5198 52.9745C97.2608 53.221 96.7894 53.0479 96.7894 52.6888V51.9333C96.7894 51.7247 96.6217 51.5556 96.4148 51.5556H92.3311C92.1242 51.5556 91.9565 51.7247 91.9565 51.9333V77.6222C91.9565 77.8309 92.1242 78 92.3311 78H96.4148C96.6217 78 96.7894 77.8309 96.7894 77.6222V69.3112C96.7894 68.9521 97.2608 68.779 97.5198 69.0255C98.823 70.2659 100.581 70.9733 102.859 70.9733C107.879 70.9733 112 66.6289 112 61C112 55.3711 107.879 51.0267 102.859 51.0267ZM101.96 66.3267C98.9998 66.3267 96.7894 64.1733 96.7894 61C96.7894 57.8267 98.9998 55.6733 101.96 55.6733C104.957 55.6733 107.167 57.8267 107.167 61C107.167 64.1733 104.957 66.3267 101.96 66.3267ZM85.8585 55.3333H85.125C84.8839 55.3333 84.6953 55.1545 84.6534 54.923C84.4542 53.7132 83.4063 52.7769 82.1382 52.7769C80.8701 52.7769 79.8221 53.7027 79.623 54.923C79.5811 55.1545 79.3925 55.3333 79.1514 55.3333H78.4178C78.1768 55.3333 77.9882 55.1229 78.0196 54.8915C78.2397 52.8084 80.0003 51.1778 82.1382 51.1778C84.2761 51.1778 86.0367 52.8084 86.2568 54.8915C86.2777 55.1229 86.0891 55.3333 85.8585 55.3333ZM72.2083 56.2778C70.0704 56.2778 68.3098 54.6471 68.0897 52.5641C68.0687 52.3221 68.2574 52.1222 68.4879 52.1222H69.2215C69.4625 52.1222 69.6512 52.3011 69.6931 52.5325C69.8922 53.7424 70.9402 54.6787 72.2083 54.6787C73.4763 54.6787 74.5243 53.7529 74.7234 52.5325C74.7653 52.3011 74.954 52.1222 75.195 52.1222H75.9286C76.1696 52.1222 76.3583 52.3326 76.3268 52.5641C76.1068 54.6471 74.3357 56.2778 72.2083 56.2778ZM65.8402 58.38C65.8402 64.8084 71.0323 70.1707 77.3713 70.0651C83.533 69.9596 88.5166 64.8506 88.5062 58.5911V58.19C88.5062 57.9683 88.329 57.7889 88.11 57.7889H66.2364C66.0175 57.7889 65.8402 57.9683 65.8402 58.19V58.38ZM67.4771 59.6678C67.4667 59.52 67.5813 59.3828 67.7377 59.3828H86.6087C86.7651 59.3828 86.8902 59.5095 86.8694 59.6678C86.3272 64.5973 82.1881 68.4501 77.1732 68.4501C72.1583 68.4501 68.0192 64.5973 67.4771 59.6678ZM130.156 74C135.658 74 139.535 71.033 139.535 66.1745C139.535 60.8785 135.19 59.5026 131.097 58.2062L131.079 58.2005C127.164 57.0137 126.167 56.1607 126.167 54.5659C126.167 53.0824 127.423 51.9698 129.565 51.9698C132.187 51.9698 133.59 53.342 134.513 55.3077L138.797 52.8228C137.061 49.1882 133.811 47 129.565 47C125.133 47 121.071 49.8187 121.071 54.7143C121.071 59.647 124.912 61.3159 128.863 62.4657C132.704 63.5783 134.439 64.3201 134.439 66.2486C134.439 67.6951 133.368 68.9931 130.303 68.9931C127.09 68.9931 125.281 67.4354 124.358 65.0247L120 67.5838C121.403 71.4409 124.875 74 130.156 74ZM152.67 74C156.289 74 159.428 72.0714 161.016 69.1786L156.88 66.8049C156.142 68.3255 154.554 69.2527 152.633 69.2527C149.79 69.2527 147.685 67.1387 147.685 64.2088C147.685 61.2418 149.79 59.1277 152.633 59.1277C154.517 59.1277 156.105 60.092 156.843 61.6126L160.943 59.2019C159.428 56.3462 156.289 54.4176 152.67 54.4176C147.057 54.4176 142.921 58.6827 142.921 64.2088C142.921 69.7349 147.057 74 152.67 74ZM182.561 64.2088C182.561 69.7349 178.204 74 172.775 74C167.347 74 163.026 69.7349 163.026 64.2088C163.026 58.6827 167.347 54.4176 172.775 54.4176C178.204 54.4176 182.561 58.6827 182.561 64.2088ZM167.79 64.2088C167.79 67.2129 169.969 69.3269 172.775 69.3269C175.619 69.3269 177.798 67.2129 177.798 64.2088C177.798 61.2047 175.619 59.0907 172.775 59.0907C169.969 59.0907 167.79 61.2047 167.79 64.2088ZM191.415 58.1264V54.9368H186.651V73.4808H191.415V64.6168C191.415 60.7225 194.554 59.6099 197.028 59.9066V54.5659C194.702 54.5659 192.375 55.6044 191.415 58.1264ZM217.815 66.1745H203.893C204.558 68.6223 206.589 69.6607 209.1 69.6607C210.947 69.6607 212.424 68.8819 213.236 67.8063L217.077 70.0316C215.341 72.5536 212.571 74 209.026 74C202.822 74 198.908 69.7349 198.908 64.2088C198.908 58.6827 202.859 54.4176 208.657 54.4176C214.122 54.4176 218 58.7569 218 64.2088C218 64.9135 217.926 65.544 217.815 66.1745ZM208.657 58.7198C206.109 58.7198 204.373 60.092 203.819 62.4657H213.236C212.645 59.7953 210.651 58.7198 208.657 58.7198Z" fill="url(#paint0_linear_69_2424)"/>
</g>
<g filter="url(#filter1_f_69_2424)">
<mask id="path-6-outside-1_69_2424" maskUnits="userSpaceOnUse" x="42" y="43" width="177" height="36" fill="black">
<rect fill="white" x="42" y="43" width="177" height="36"/>
<path fill-rule="evenodd" clip-rule="evenodd" d="M66.5005 44.5629C66.6409 44.3111 66.4604 44 66.174 44H61.1972C61.0575 44 60.9294 44.0784 60.8649 44.2033L55.6075 54.3874C55.4676 54.6585 55.0829 54.6585 54.9429 54.3874L49.6856 44.2033C49.6211 44.0784 49.493 44 49.3533 44H44.3752C44.089 44 43.9085 44.3105 44.0483 44.5623L52.6424 60.0451C52.6737 60.1015 52.6902 60.165 52.6902 60.2296V70.0667C52.6902 70.2753 52.8579 70.4444 53.0648 70.4444H57.4482C57.6551 70.4444 57.8228 70.2753 57.8228 70.0667V60.23C57.8228 60.1652 57.8394 60.1014 57.8709 60.0449L66.5005 44.5629ZM102.859 51.0267C100.581 51.0267 98.823 51.7341 97.5198 52.9745C97.2608 53.221 96.7894 53.0479 96.7894 52.6888V51.9333C96.7894 51.7247 96.6217 51.5556 96.4148 51.5556H92.3311C92.1242 51.5556 91.9565 51.7247 91.9565 51.9333V77.6222C91.9565 77.8309 92.1242 78 92.3311 78H96.4148C96.6217 78 96.7894 77.8309 96.7894 77.6222V69.3112C96.7894 68.9521 97.2608 68.779 97.5198 69.0255C98.823 70.2659 100.581 70.9733 102.859 70.9733C107.879 70.9733 112 66.6289 112 61C112 55.3711 107.879 51.0267 102.859 51.0267ZM101.96 66.3267C98.9998 66.3267 96.7894 64.1733 96.7894 61C96.7894 57.8267 98.9998 55.6733 101.96 55.6733C104.957 55.6733 107.167 57.8267 107.167 61C107.167 64.1733 104.957 66.3267 101.96 66.3267ZM85.8585 55.3333H85.125C84.8839 55.3333 84.6953 55.1545 84.6534 54.923C84.4542 53.7132 83.4063 52.7769 82.1382 52.7769C80.8701 52.7769 79.8221 53.7027 79.623 54.923C79.5811 55.1545 79.3925 55.3333 79.1514 55.3333H78.4178C78.1768 55.3333 77.9882 55.1229 78.0196 54.8915C78.2397 52.8084 80.0003 51.1778 82.1382 51.1778C84.2761 51.1778 86.0367 52.8084 86.2568 54.8915C86.2777 55.1229 86.0891 55.3333 85.8585 55.3333ZM72.2083 56.2778C70.0704 56.2778 68.3098 54.6471 68.0897 52.5641C68.0687 52.3221 68.2574 52.1222 68.4879 52.1222H69.2215C69.4625 52.1222 69.6512 52.3011 69.6931 52.5325C69.8922 53.7424 70.9402 54.6787 72.2083 54.6787C73.4763 54.6787 74.5243 53.7529 74.7234 52.5325C74.7653 52.3011 74.954 52.1222 75.195 52.1222H75.9286C76.1696 52.1222 76.3583 52.3326 76.3268 52.5641C76.1068 54.6471 74.3357 56.2778 72.2083 56.2778ZM65.8402 58.38C65.8402 64.8084 71.0323 70.1707 77.3713 70.0651C83.533 69.9596 88.5166 64.8506 88.5062 58.5911V58.19C88.5062 57.9683 88.329 57.7889 88.11 57.7889H66.2364C66.0175 57.7889 65.8402 57.9683 65.8402 58.19V58.38ZM67.4771 59.6678C67.4667 59.52 67.5813 59.3828 67.7377 59.3828H86.6087C86.7651 59.3828 86.8902 59.5095 86.8694 59.6678C86.3272 64.5973 82.1881 68.4501 77.1732 68.4501C72.1583 68.4501 68.0192 64.5973 67.4771 59.6678ZM130.156 74C135.658 74 139.535 71.033 139.535 66.1745C139.535 60.8785 135.19 59.5026 131.097 58.2062L131.079 58.2005C127.164 57.0137 126.167 56.1607 126.167 54.5659C126.167 53.0824 127.423 51.9698 129.565 51.9698C132.187 51.9698 133.59 53.342 134.513 55.3077L138.797 52.8228C137.061 49.1882 133.811 47 129.565 47C125.133 47 121.071 49.8187 121.071 54.7143C121.071 59.647 124.912 61.3159 128.863 62.4657C132.704 63.5783 134.439 64.3201 134.439 66.2486C134.439 67.6951 133.368 68.9931 130.303 68.9931C127.09 68.9931 125.281 67.4354 124.358 65.0247L120 67.5838C121.403 71.4409 124.875 74 130.156 74ZM152.67 74C156.289 74 159.428 72.0714 161.016 69.1786L156.88 66.8049C156.142 68.3255 154.554 69.2527 152.633 69.2527C149.79 69.2527 147.685 67.1387 147.685 64.2088C147.685 61.2418 149.79 59.1277 152.633 59.1277C154.517 59.1277 156.105 60.092 156.843 61.6126L160.943 59.2019C159.428 56.3462 156.289 54.4176 152.67 54.4176C147.057 54.4176 142.921 58.6827 142.921 64.2088C142.921 69.7349 147.057 74 152.67 74ZM182.561 64.2088C182.561 69.7349 178.204 74 172.775 74C167.347 74 163.026 69.7349 163.026 64.2088C163.026 58.6827 167.347 54.4176 172.775 54.4176C178.204 54.4176 182.561 58.6827 182.561 64.2088ZM167.79 64.2088C167.79 67.2129 169.969 69.3269 172.775 69.3269C175.619 69.3269 177.798 67.2129 177.798 64.2088C177.798 61.2047 175.619 59.0907 172.775 59.0907C169.969 59.0907 167.79 61.2047 167.79 64.2088ZM191.415 58.1264V54.9368H186.651V73.4808H191.415V64.6168C191.415 60.7225 194.554 59.6099 197.028 59.9066V54.5659C194.702 54.5659 192.375 55.6044 191.415 58.1264ZM217.815 66.1745H203.893C204.558 68.6223 206.589 69.6607 209.1 69.6607C210.947 69.6607 212.424 68.8819 213.236 67.8063L217.077 70.0316C215.341 72.5536 212.571 74 209.026 74C202.822 74 198.908 69.7349 198.908 64.2088C198.908 58.6827 202.859 54.4176 208.657 54.4176C214.122 54.4176 218 58.7569 218 64.2088C218 64.9135 217.926 65.544 217.815 66.1745ZM208.657 58.7198C206.109 58.7198 204.373 60.092 203.819 62.4657H213.236C212.645 59.7953 210.651 58.7198 208.657 58.7198Z"/>
</mask>
<path d="M66.5005 44.5629L65.6271 44.076L65.6271 44.076L66.5005 44.5629ZM60.8649 44.2033L59.9763 43.7446L59.9763 43.7446L60.8649 44.2033ZM55.6075 54.3874L54.719 53.9287L55.6075 54.3874ZM54.9429 54.3874L55.8315 53.9287L55.8315 53.9287L54.9429 54.3874ZM49.6856 44.2033L48.797 44.6621L48.797 44.6621L49.6856 44.2033ZM44.0483 44.5623L43.1739 45.0476L44.0483 44.5623ZM52.6424 60.0451L53.5168 59.5598L53.5168 59.5598L52.6424 60.0451ZM57.8709 60.0449L58.7443 60.5318L58.7443 60.5318L57.8709 60.0449ZM97.5198 52.9745L98.2092 53.6988V53.6988L97.5198 52.9745ZM97.5198 69.0255L96.8303 69.7499V69.7499L97.5198 69.0255ZM84.6534 54.923L83.6666 55.0854L83.6679 55.0934L83.6694 55.1013L84.6534 54.923ZM79.623 54.923L80.607 55.1013L80.6086 55.0927L80.61 55.0841L79.623 54.923ZM78.0196 54.8915L79.0105 55.0261L79.0125 55.0113L79.0141 54.9965L78.0196 54.8915ZM86.2568 54.8915L87.2527 54.8013L87.252 54.7938L87.2512 54.7864L86.2568 54.8915ZM68.0897 52.5641L67.0934 52.6504L67.0942 52.6598L67.0952 52.6691L68.0897 52.5641ZM69.6931 52.5325L70.6798 52.3701L70.6785 52.3622L70.6771 52.3543L69.6931 52.5325ZM74.7234 52.5325L73.7394 52.3543L73.7379 52.3629L73.7365 52.3715L74.7234 52.5325ZM76.3268 52.5641L75.3359 52.4295L75.3339 52.4442L75.3324 52.459L76.3268 52.5641ZM77.3713 70.0651L77.388 71.065L77.3884 71.065L77.3713 70.0651ZM88.5062 58.5911H87.5062V58.5928L88.5062 58.5911ZM67.4771 59.6678L66.4796 59.7382L66.4809 59.7577L66.4831 59.7771L67.4771 59.6678ZM86.8694 59.6678L85.8779 59.5372L85.8765 59.5478L85.8753 59.5585L86.8694 59.6678ZM131.097 58.2062L131.398 57.2528L131.398 57.2528L131.097 58.2062ZM131.079 58.2005L131.381 57.2471L131.369 57.2436L131.079 58.2005ZM134.513 55.3077L133.608 55.7328L134.072 56.7199L135.015 56.1727L134.513 55.3077ZM138.797 52.8228L139.299 53.6878L140.097 53.2247L139.699 52.3919L138.797 52.8228ZM128.863 62.4657L128.584 63.4258L128.585 63.4262L128.863 62.4657ZM124.358 65.0247L125.291 64.6671L124.869 63.5646L123.851 64.1624L124.358 65.0247ZM120 67.5838L119.494 66.7215L118.776 67.1432L119.06 67.9257L120 67.5838ZM161.016 69.1786L161.893 69.6598L162.365 68.7996L161.514 68.3112L161.016 69.1786ZM156.88 66.8049L157.378 65.9376L156.449 65.4044L155.981 66.368L156.88 66.8049ZM156.843 61.6126L155.944 62.0495L156.417 63.0235L157.35 62.4746L156.843 61.6126ZM160.943 59.2019L161.449 60.0639L162.274 59.5789L161.826 58.7335L160.943 59.2019ZM191.415 54.9368H192.415V53.9368H191.415V54.9368ZM191.415 58.1264H190.415L192.35 58.4822L191.415 58.1264ZM186.651 54.9368V53.9368H185.651V54.9368H186.651ZM186.651 73.4808H185.651V74.4808H186.651V73.4808ZM191.415 73.4808V74.4808H192.415V73.4808H191.415ZM197.028 59.9066L196.909 60.8995L198.028 61.0337V59.9066H197.028ZM197.028 54.5659H198.028V53.5659H197.028V54.5659ZM203.893 66.1745V65.1745H202.585L202.928 66.4365L203.893 66.1745ZM217.815 66.1745V67.1745H218.655L218.8 66.3475L217.815 66.1745ZM213.236 67.8063L213.737 66.9411L212.972 66.4973L212.438 67.2036L213.236 67.8063ZM217.077 70.0316L217.901 70.5985L218.513 69.7082L217.578 69.1663L217.077 70.0316ZM203.819 62.4657L202.845 62.2384L202.559 63.4657H203.819V62.4657ZM213.236 62.4657V63.4657H214.482L214.213 62.2496L213.236 62.4657ZM66.174 45C65.6831 45 65.4028 44.4783 65.6271 44.076L67.374 45.0498C67.879 44.1438 67.2377 43 66.174 43V45ZM61.1972 45H66.174V43H61.1972V45ZM61.7534 44.6621C61.6478 44.8668 61.4347 45 61.1972 45V43C60.6802 43 60.211 43.29 59.9763 43.7446L61.7534 44.6621ZM56.4961 54.8461L61.7534 44.6621L59.9763 43.7446L54.719 53.9287L56.4961 54.8461ZM54.0543 54.8461C54.5669 55.8389 55.9836 55.8389 56.4961 54.8461L54.719 53.9287C54.9516 53.4781 55.5989 53.4781 55.8315 53.9287L54.0543 54.8461ZM48.797 44.6621L54.0543 54.8461L55.8315 53.9287L50.5742 43.7446L48.797 44.6621ZM49.3533 45C49.1157 45 48.9027 44.8668 48.797 44.6621L50.5742 43.7446C50.3395 43.29 49.8702 43 49.3533 43V45ZM44.3752 45H49.3533V43H44.3752V45ZM44.9226 44.077C45.1459 44.4793 44.8655 45 44.3752 45V43C43.3125 43 42.6711 44.1417 43.1739 45.0476L44.9226 44.077ZM53.5168 59.5598L44.9226 44.077L43.1739 45.0476L51.7681 60.5305L53.5168 59.5598ZM53.6902 60.2296C53.6902 59.9956 53.6307 59.765 53.5168 59.5598L51.7681 60.5304C51.7168 60.438 51.6902 60.3345 51.6902 60.2296H53.6902ZM53.6902 70.0667V60.2296H51.6902V70.0667H53.6902ZM53.0648 69.4444C53.418 69.4444 53.6902 69.7309 53.6902 70.0667H51.6902C51.6902 70.8197 52.2978 71.4444 53.0648 71.4444V69.4444ZM57.4482 69.4444H53.0648V71.4444H57.4482V69.4444ZM56.8228 70.0667C56.8228 69.7309 57.095 69.4444 57.4482 69.4444V71.4444C58.2152 71.4444 58.8228 70.8197 58.8228 70.0667H56.8228ZM56.8228 60.23V70.0667H58.8228V60.23H56.8228ZM56.9974 59.558C56.8827 59.7637 56.8228 59.9951 56.8228 60.23H58.8228C58.8228 60.3352 58.796 60.4391 58.7443 60.5318L56.9974 59.558ZM65.6271 44.076L56.9974 59.558L58.7443 60.5318L67.374 45.0498L65.6271 44.076ZM98.2092 53.6988C99.3039 52.6569 100.805 52.0267 102.859 52.0267V50.0267C100.357 50.0267 98.342 50.8113 96.8303 52.2501L98.2092 53.6988ZM95.7894 52.6888C95.7894 53.363 96.2437 53.8184 96.7008 53.993C97.1499 54.1645 97.7561 54.1301 98.2092 53.6988L96.8303 52.2501C97.0244 52.0654 97.2654 52.0677 97.4142 52.1245C97.5708 52.1843 97.7894 52.3737 97.7894 52.6888H95.7894ZM95.7894 51.9333V52.6888H97.7894V51.9333H95.7894ZM96.4148 52.5556C96.0616 52.5556 95.7894 52.2691 95.7894 51.9333H97.7894C97.7894 51.1803 97.1818 50.5556 96.4148 50.5556V52.5556ZM92.3311 52.5556H96.4148V50.5556H92.3311V52.5556ZM92.9565 51.9333C92.9565 52.2691 92.6844 52.5556 92.3311 52.5556V50.5556C91.5641 50.5556 90.9565 51.1803 90.9565 51.9333H92.9565ZM92.9565 77.6222V51.9333H90.9565V77.6222H92.9565ZM92.3311 77C92.6844 77 92.9565 77.2865 92.9565 77.6222H90.9565C90.9565 78.3753 91.5641 79 92.3311 79V77ZM96.4148 77H92.3311V79H96.4148V77ZM95.7894 77.6222C95.7894 77.2864 96.0616 77 96.4148 77V79C97.1818 79 97.7894 78.3753 97.7894 77.6222H95.7894ZM95.7894 69.3112V77.6222H97.7894V69.3112H95.7894ZM98.2092 68.3012C97.7561 67.8699 97.1499 67.8355 96.7008 68.007C96.2437 68.1816 95.7894 68.637 95.7894 69.3112H97.7894C97.7894 69.6263 97.5708 69.8157 97.4142 69.8755C97.2654 69.9323 97.0244 69.9346 96.8303 69.7499L98.2092 68.3012ZM102.859 69.9733C100.805 69.9733 99.3039 69.3431 98.2092 68.3012L96.8303 69.7499C98.342 71.1887 100.357 71.9733 102.859 71.9733V69.9733ZM111 61C111 66.1501 107.256 69.9733 102.859 69.9733V71.9733C108.502 71.9733 113 67.1077 113 61H111ZM102.859 52.0267C107.256 52.0267 111 55.8499 111 61H113C113 54.8923 108.502 50.0267 102.859 50.0267V52.0267ZM95.7894 61C95.7894 64.713 98.435 67.3267 101.96 67.3267V65.3267C99.5647 65.3267 97.7894 63.6337 97.7894 61H95.7894ZM101.96 54.6733C98.435 54.6733 95.7894 57.287 95.7894 61H97.7894C97.7894 58.3663 99.5647 56.6733 101.96 56.6733V54.6733ZM108.167 61C108.167 59.1746 107.527 57.5819 106.397 56.4425C105.268 55.3038 103.704 54.6733 101.96 54.6733V56.6733C103.212 56.6733 104.252 57.1196 104.977 57.8508C105.702 58.5814 106.167 59.652 106.167 61H108.167ZM101.96 67.3267C103.704 67.3267 105.268 66.6962 106.397 65.5575C107.527 64.4181 108.167 62.8254 108.167 61H106.167C106.167 62.348 105.702 63.4186 104.977 64.1492C104.252 64.8804 103.212 65.3267 101.96 65.3267V67.3267ZM85.125 56.3333H85.8585V54.3333H85.125V56.3333ZM83.6694 55.1013C83.7871 55.7514 84.3446 56.3333 85.125 56.3333V54.3333C85.4232 54.3333 85.6034 54.5575 85.6373 54.7448L83.6694 55.1013ZM82.1382 53.7769C82.9004 53.7769 83.5443 54.3425 83.6666 55.0854L85.6401 54.7606C85.3641 53.0839 83.9121 51.7769 82.1382 51.7769V53.7769ZM80.61 55.0841C80.7321 54.3353 81.3724 53.7769 82.1382 53.7769V51.7769C80.3678 51.7769 78.9121 53.07 78.6361 54.762L80.61 55.0841ZM79.1514 56.3333C79.9318 56.3333 80.4893 55.7514 80.607 55.1013L78.639 54.7448C78.673 54.5575 78.8532 54.3333 79.1514 54.3333V56.3333ZM78.4178 56.3333H79.1514V54.3333H78.4178V56.3333ZM77.0287 54.7569C76.9117 55.6181 77.6012 56.3333 78.4178 56.3333V54.3333C78.7524 54.3333 79.0646 54.6278 79.0105 55.0261L77.0287 54.7569ZM82.1382 50.1778C79.4797 50.1778 77.298 52.2036 77.0251 54.7864L79.0141 54.9965C79.1813 53.4133 80.5209 52.1778 82.1382 52.1778V50.1778ZM87.2512 54.7864C86.9784 52.2036 84.7967 50.1778 82.1382 50.1778V52.1778C83.7555 52.1778 85.095 53.4133 85.2623 54.9965L87.2512 54.7864ZM85.8585 56.3333C86.6919 56.3333 87.3253 55.6033 87.2527 54.8013L85.2608 54.9817C85.2301 54.6426 85.4863 54.3333 85.8585 54.3333V56.3333ZM67.0952 52.6691C67.3681 55.252 69.5498 57.2778 72.2083 57.2778V55.2778C70.5909 55.2778 69.2514 54.0422 69.0841 52.459L67.0952 52.6691ZM68.4879 51.1222C67.6682 51.1222 67.0221 51.8271 67.0934 52.6504L69.0859 52.4778C69.1153 52.8171 68.8465 53.1222 68.4879 53.1222V51.1222ZM69.2215 51.1222H68.4879V53.1222H69.2215V51.1222ZM70.6771 52.3543C70.5593 51.7041 70.0018 51.1222 69.2215 51.1222V53.1222C68.9232 53.1222 68.743 52.898 68.7091 52.7107L70.6771 52.3543ZM72.2083 53.6787C71.4461 53.6787 70.8021 53.1131 70.6798 52.3701L68.7064 52.6949C68.9823 54.3716 70.4343 55.6787 72.2083 55.6787V53.6787ZM73.7365 52.3715C73.6143 53.1202 72.974 53.6787 72.2083 53.6787V55.6787C73.9786 55.6787 75.4343 54.3856 75.7104 52.6936L73.7365 52.3715ZM75.195 51.1222C74.4147 51.1222 73.8572 51.7041 73.7394 52.3543L75.7074 52.7107C75.6735 52.898 75.4933 53.1222 75.195 53.1222V51.1222ZM75.9286 51.1222H75.195V53.1222H75.9286V51.1222ZM77.3177 52.6987C77.4347 51.8375 76.7453 51.1222 75.9286 51.1222V53.1222C75.594 53.1222 75.2818 52.8278 75.3359 52.4295L77.3177 52.6987ZM72.2083 57.2778C74.8547 57.2778 77.0483 55.2536 77.3213 52.6691L75.3324 52.459C75.1653 54.0406 73.8167 55.2778 72.2083 55.2778V57.2778ZM77.3547 69.0653C71.6082 69.161 66.8402 64.284 66.8402 58.38H64.8402C64.8402 65.3328 70.4565 71.1804 77.388 71.065L77.3547 69.0653ZM87.5062 58.5928C87.5158 64.3151 82.9608 68.9692 77.3542 69.0653L77.3884 71.065C84.1053 70.9499 89.5175 65.3862 89.5062 58.5895L87.5062 58.5928ZM87.5062 58.19V58.5911H89.5062V58.19H87.5062ZM88.11 58.7889C87.7651 58.7889 87.5062 58.5089 87.5062 58.19H89.5062C89.5062 57.4277 88.8929 56.7889 88.11 56.7889V58.7889ZM66.2364 58.7889H88.11V56.7889H66.2364V58.7889ZM66.8402 58.19C66.8402 58.5089 66.5814 58.7889 66.2364 58.7889V56.7889C65.4535 56.7889 64.8402 57.4277 64.8402 58.19H66.8402ZM66.8402 58.38V58.19H64.8402V58.38H66.8402ZM67.7377 58.3828C66.9559 58.3828 66.4316 59.0582 66.4796 59.7382L68.4746 59.5974C68.5017 59.9818 68.2068 60.3828 67.7377 60.3828V58.3828ZM86.6087 58.3828H67.7377V60.3828H86.6087V58.3828ZM87.8608 59.7984C87.9691 58.9759 87.3016 58.3828 86.6087 58.3828V60.3828C86.2286 60.3828 85.8113 60.043 85.8779 59.5372L87.8608 59.7984ZM77.1732 69.4501C82.7149 69.4501 87.2673 65.1966 87.8634 59.7771L85.8753 59.5585C85.3871 63.998 81.6613 67.4501 77.1732 67.4501V69.4501ZM66.4831 59.7771C67.0791 65.1966 71.6315 69.4501 77.1732 69.4501V67.4501C72.6852 67.4501 68.9594 63.998 68.4711 59.5585L66.4831 59.7771ZM138.535 66.1745C138.535 68.3124 137.694 69.9804 136.278 71.1337C134.84 72.304 132.736 73 130.156 73V75C133.077 75 135.663 74.2125 137.54 72.6847C139.438 71.1398 140.535 68.895 140.535 66.1745H138.535ZM130.795 59.1595C132.881 59.8203 134.821 60.4449 136.261 61.4978C137.62 62.4913 138.535 63.8682 138.535 66.1745H140.535C140.535 63.1848 139.278 61.2257 137.441 59.8832C135.686 58.6001 133.406 57.8885 131.398 57.2528L130.795 59.1595ZM130.777 59.1539L130.795 59.1595L131.398 57.2528L131.381 57.2472L130.777 59.1539ZM125.167 54.5659C125.167 55.0704 125.246 55.5796 125.482 56.0718C125.719 56.5658 126.082 56.9766 126.55 57.3326C127.446 58.0127 128.831 58.564 130.789 59.1575L131.369 57.2436C129.412 56.6503 128.341 56.1816 127.76 55.7399C127.49 55.5349 127.359 55.3593 127.286 55.2077C127.212 55.0543 127.167 54.8588 127.167 54.5659H125.167ZM129.565 50.9698C128.329 50.9698 127.241 51.2908 126.439 51.9296C125.621 52.5819 125.167 53.5181 125.167 54.5659H127.167C127.167 54.1302 127.341 53.7684 127.686 53.4935C128.048 53.2051 128.659 52.9698 129.565 52.9698V50.9698ZM135.418 54.8826C134.915 53.8106 134.243 52.819 133.272 52.0984C132.285 51.3666 131.063 50.9698 129.565 50.9698V52.9698C130.688 52.9698 131.479 53.2591 132.08 53.7049C132.696 54.1618 133.188 54.8391 133.608 55.7328L135.418 54.8826ZM138.295 51.9578L134.011 54.4427L135.015 56.1727L139.299 53.6878L138.295 51.9578ZM129.565 48C133.414 48 136.319 49.9554 137.895 53.2537L139.699 52.3919C137.803 48.4209 134.209 46 129.565 46V48ZM122.071 54.7143C122.071 50.5283 125.514 48 129.565 48V46C124.753 46 120.071 49.109 120.071 54.7143H122.071ZM129.142 61.5055C127.179 60.9343 125.401 60.2734 124.115 59.2315C122.887 58.237 122.071 56.8683 122.071 54.7143H120.071C120.071 57.493 121.176 59.4251 122.856 60.7857C124.477 62.0988 126.595 62.8473 128.584 63.4258L129.142 61.5055ZM135.439 66.2486C135.439 65.6066 135.292 65.0102 134.957 64.4723C134.629 63.9449 134.161 63.537 133.618 63.2008C132.568 62.551 131.038 62.0547 129.141 61.5052L128.585 63.4262C130.529 63.9893 131.787 64.4201 132.565 64.9015C132.936 65.1309 133.141 65.3396 133.259 65.5285C133.37 65.7068 133.439 65.9264 133.439 66.2486H135.439ZM130.303 69.9931C131.958 69.9931 133.242 69.6455 134.134 68.9532C135.06 68.2342 135.439 67.239 135.439 66.2486H133.439C133.439 66.7047 133.283 67.0817 132.907 67.3734C132.497 67.6918 131.714 67.9931 130.303 67.9931V69.9931ZM123.424 65.3824C123.938 66.7246 124.725 67.8964 125.892 68.7273C127.061 69.5608 128.53 69.9931 130.303 69.9931V67.9931C128.863 67.9931 127.821 67.6466 127.052 67.0986C126.279 66.5479 125.701 65.7356 125.291 64.6671L123.424 65.3824ZM120.506 68.4461L124.864 65.887L123.851 64.1624L119.494 66.7215L120.506 68.4461ZM130.156 73C125.248 73 122.184 70.6612 120.94 67.2419L119.06 67.9257C120.623 72.2206 124.502 75 130.156 75V73ZM160.14 68.6974C158.73 71.2662 155.929 73 152.67 73V75C156.65 75 160.127 72.8767 161.893 69.6598L160.14 68.6974ZM156.383 67.6723L160.519 70.0459L161.514 68.3112L157.378 65.9376L156.383 67.6723ZM152.633 70.2527C154.88 70.2527 156.851 69.1549 157.78 67.2418L155.981 66.368C155.433 67.4962 154.227 68.2527 152.633 68.2527V70.2527ZM146.685 64.2088C146.685 67.6771 149.224 70.2527 152.633 70.2527V68.2527C150.356 68.2527 148.685 66.6004 148.685 64.2088H146.685ZM152.633 58.1277C149.219 58.1277 146.685 60.7083 146.685 64.2088H148.685C148.685 61.7752 150.361 60.1277 152.633 60.1277V58.1277ZM157.743 61.1757C156.822 59.2792 154.864 58.1277 152.633 58.1277V60.1277C154.17 60.1277 155.388 60.9048 155.944 62.0495L157.743 61.1757ZM160.436 58.3399L156.336 60.7507L157.35 62.4746L161.449 60.0639L160.436 58.3399ZM152.67 55.4176C155.935 55.4176 158.725 57.1551 160.059 59.6703L161.826 58.7335C160.131 55.5372 156.644 53.4176 152.67 53.4176V55.4176ZM143.921 64.2088C143.921 59.2234 147.621 55.4176 152.67 55.4176V53.4176C146.493 53.4176 141.921 58.142 141.921 64.2088H143.921ZM152.67 73C147.621 73 143.921 69.1942 143.921 64.2088H141.921C141.921 70.2756 146.493 75 152.67 75V73ZM172.775 75C178.75 75 183.561 70.293 183.561 64.2088H181.561C181.561 69.1768 177.657 73 172.775 73V75ZM162.026 64.2088C162.026 70.2881 166.795 75 172.775 75V73C167.898 73 164.026 69.1817 164.026 64.2088H162.026ZM172.775 53.4176C166.795 53.4176 162.026 58.1295 162.026 64.2088H164.026C164.026 59.2359 167.898 55.4176 172.775 55.4176V53.4176ZM183.561 64.2088C183.561 58.1246 178.75 53.4176 172.775 53.4176V55.4176C177.657 55.4176 181.561 59.2408 181.561 64.2088H183.561ZM172.775 68.3269C170.53 68.3269 168.79 66.6695 168.79 64.2088H166.79C166.79 67.7563 169.407 70.3269 172.775 70.3269V68.3269ZM176.798 64.2088C176.798 66.6647 175.062 68.3269 172.775 68.3269V70.3269C176.175 70.3269 178.798 67.7611 178.798 64.2088H176.798ZM172.775 60.0907C175.062 60.0907 176.798 61.7529 176.798 64.2088H178.798C178.798 60.6564 176.175 58.0907 172.775 58.0907V60.0907ZM168.79 64.2088C168.79 61.748 170.53 60.0907 172.775 60.0907V58.0907C169.407 58.0907 166.79 60.6613 166.79 64.2088H168.79ZM190.415 54.9368V58.1264H192.415V54.9368H190.415ZM186.651 55.9368H191.415V53.9368H186.651V55.9368ZM187.651 73.4808V54.9368H185.651V73.4808H187.651ZM191.415 72.4808H186.651V74.4808H191.415V72.4808ZM190.415 64.6168V73.4808H192.415V64.6168H190.415ZM197.147 58.9137C195.74 58.7449 194.081 58.9653 192.74 59.8575C191.346 60.7846 190.415 62.3608 190.415 64.6168H192.415C192.415 62.9785 193.053 62.0513 193.848 61.5227C194.695 60.9591 195.843 60.7716 196.909 60.8995L197.147 58.9137ZM196.028 54.5659V59.9066H198.028V54.5659H196.028ZM192.35 58.4822C193.12 56.46 194.983 55.5659 197.028 55.5659V53.5659C194.421 53.5659 191.631 54.7488 190.481 57.7706L192.35 58.4822ZM203.893 67.1745H217.815V65.1745H203.893V67.1745ZM209.1 68.6607C207.974 68.6607 207.037 68.4269 206.334 67.9876C205.651 67.5607 205.127 66.9028 204.858 65.9124L202.928 66.4365C203.324 67.8939 204.147 68.9791 205.274 69.6835C206.381 70.3753 207.715 70.6607 209.1 70.6607V68.6607ZM212.438 67.2036C211.835 68.0019 210.669 68.6607 209.1 68.6607V70.6607C211.225 70.6607 213.012 69.7618 214.034 68.4091L212.438 67.2036ZM217.578 69.1663L213.737 66.9411L212.735 68.6716L216.575 70.8968L217.578 69.1663ZM209.026 75C212.87 75 215.962 73.416 217.901 70.5985L216.253 69.4647C214.721 71.6912 212.273 73 209.026 73V75ZM197.908 64.2088C197.908 67.212 198.975 69.9219 200.933 71.8832C202.894 73.8474 205.687 75 209.026 75V73C206.161 73 203.895 72.0201 202.348 70.4702C200.798 68.9174 199.908 66.7317 199.908 64.2088H197.908ZM208.657 53.4176C202.283 53.4176 197.908 58.1547 197.908 64.2088H199.908C199.908 59.2107 203.435 55.4176 208.657 55.4176V53.4176ZM219 64.2088C219 58.2683 214.736 53.4176 208.657 53.4176V55.4176C213.509 55.4176 217 59.2454 217 64.2088H219ZM218.8 66.3475C218.918 65.6772 219 64.9867 219 64.2088H217C217 64.8402 216.934 65.4107 216.83 66.0014L218.8 66.3475ZM204.793 62.6929C205.026 61.6946 205.49 60.9706 206.105 60.4916C206.721 60.0115 207.565 59.7198 208.657 59.7198V57.7198C207.201 57.7198 205.903 58.1142 204.876 58.9136C203.848 59.7142 203.166 60.8631 202.845 62.2384L204.793 62.6929ZM213.236 61.4657H203.819V63.4657H213.236V61.4657ZM208.657 59.7198C209.479 59.7198 210.259 59.9414 210.881 60.3977C211.492 60.8452 212.012 61.5636 212.26 62.6817L214.213 62.2496C213.869 60.6973 213.097 59.5428 212.064 58.785C211.043 58.0359 209.829 57.7198 208.657 57.7198V59.7198Z" fill="black" mask="url(#path-6-outside-1_69_2424)"/>
</g>
<path fill-rule="evenodd" clip-rule="evenodd" d="M66.5005 44.5629C66.6409 44.3111 66.4604 44 66.174 44H61.1972C61.0575 44 60.9294 44.0784 60.8649 44.2033L55.6075 54.3874C55.4676 54.6585 55.0829 54.6585 54.9429 54.3874L49.6856 44.2033C49.6211 44.0784 49.493 44 49.3533 44H44.3752C44.089 44 43.9085 44.3105 44.0483 44.5623L52.6424 60.0451C52.6737 60.1015 52.6902 60.165 52.6902 60.2296V70.0667C52.6902 70.2753 52.8579 70.4444 53.0648 70.4444H57.4482C57.6551 70.4444 57.8228 70.2753 57.8228 70.0667V60.23C57.8228 60.1652 57.8394 60.1014 57.8709 60.0449L66.5005 44.5629ZM102.859 51.0267C100.581 51.0267 98.823 51.7341 97.5198 52.9745C97.2608 53.221 96.7894 53.0479 96.7894 52.6888V51.9333C96.7894 51.7247 96.6217 51.5556 96.4148 51.5556H92.3311C92.1242 51.5556 91.9565 51.7247 91.9565 51.9333V77.6222C91.9565 77.8309 92.1242 78 92.3311 78H96.4148C96.6217 78 96.7894 77.8309 96.7894 77.6222V69.3112C96.7894 68.9521 97.2608 68.779 97.5198 69.0255C98.823 70.2659 100.581 70.9733 102.859 70.9733C107.879 70.9733 112 66.6289 112 61C112 55.3711 107.879 51.0267 102.859 51.0267ZM101.96 66.3267C98.9998 66.3267 96.7894 64.1733 96.7894 61C96.7894 57.8267 98.9998 55.6733 101.96 55.6733C104.957 55.6733 107.167 57.8267 107.167 61C107.167 64.1733 104.957 66.3267 101.96 66.3267ZM85.8585 55.3333H85.1249C84.8839 55.3333 84.6953 55.1545 84.6534 54.923C84.4542 53.7132 83.4062 52.7769 82.1382 52.7769C80.8701 52.7769 79.8221 53.7027 79.623 54.923C79.5811 55.1545 79.3925 55.3333 79.1514 55.3333H78.4178C78.1768 55.3333 77.9882 55.1229 78.0196 54.8915C78.2397 52.8084 80.0003 51.1778 82.1382 51.1778C84.2761 51.1778 86.0367 52.8084 86.2568 54.8915C86.2777 55.1229 86.0891 55.3333 85.8585 55.3333ZM72.2083 56.2778C70.0704 56.2778 68.3098 54.6471 68.0897 52.5641C68.0687 52.3221 68.2574 52.1222 68.4879 52.1222H69.2215C69.4625 52.1222 69.6512 52.3011 69.6931 52.5325C69.8922 53.7424 70.9402 54.6787 72.2083 54.6787C73.4763 54.6787 74.5243 53.7529 74.7234 52.5325C74.7653 52.3011 74.954 52.1222 75.195 52.1222H75.9286C76.1696 52.1222 76.3583 52.3326 76.3268 52.5641C76.1068 54.6471 74.3357 56.2778 72.2083 56.2778ZM65.8402 58.38C65.8402 64.8084 71.0323 70.1707 77.3713 70.0651C83.533 69.9596 88.5166 64.8506 88.5062 58.5911V58.19C88.5062 57.9683 88.329 57.7889 88.11 57.7889H66.2364C66.0175 57.7889 65.8402 57.9683 65.8402 58.19V58.38ZM67.4771 59.6678C67.4667 59.52 67.5813 59.3828 67.7377 59.3828H86.6087C86.7651 59.3828 86.8902 59.5095 86.8693 59.6678C86.3272 64.5973 82.1881 68.4501 77.1732 68.4501C72.1583 68.4501 68.0192 64.5973 67.4771 59.6678ZM130.156 74C135.658 74 139.535 71.033 139.535 66.1745C139.535 60.8785 135.19 59.5026 131.097 58.2062L131.079 58.2005C127.164 57.0137 126.167 56.1607 126.167 54.5659C126.167 53.0824 127.423 51.9698 129.565 51.9698C132.187 51.9698 133.59 53.342 134.513 55.3077L138.797 52.8228C137.061 49.1882 133.811 47 129.565 47C125.133 47 121.071 49.8187 121.071 54.7143C121.071 59.647 124.912 61.3159 128.863 62.4657C132.704 63.5783 134.439 64.3201 134.439 66.2486C134.439 67.6951 133.368 68.9931 130.303 68.9931C127.09 68.9931 125.281 67.4354 124.358 65.0247L120 67.5838C121.403 71.4409 124.875 74 130.156 74ZM152.67 74C156.289 74 159.428 72.0714 161.016 69.1786L156.88 66.8049C156.142 68.3255 154.554 69.2527 152.633 69.2527C149.79 69.2527 147.685 67.1387 147.685 64.2088C147.685 61.2418 149.79 59.1277 152.633 59.1277C154.517 59.1277 156.105 60.092 156.843 61.6126L160.943 59.2019C159.428 56.3462 156.289 54.4176 152.67 54.4176C147.057 54.4176 142.921 58.6827 142.921 64.2088C142.921 69.7349 147.057 74 152.67 74ZM182.561 64.2088C182.561 69.7349 178.204 74 172.775 74C167.347 74 163.026 69.7349 163.026 64.2088C163.026 58.6827 167.347 54.4176 172.775 54.4176C178.204 54.4176 182.561 58.6827 182.561 64.2088ZM167.79 64.2088C167.79 67.2129 169.969 69.3269 172.775 69.3269C175.619 69.3269 177.797 67.2129 177.797 64.2088C177.797 61.2047 175.619 59.0907 172.775 59.0907C169.969 59.0907 167.79 61.2047 167.79 64.2088ZM191.415 58.1264V54.9368H186.651V73.4808H191.415V64.6168C191.415 60.7225 194.554 59.6099 197.028 59.9066V54.5659C194.702 54.5659 192.375 55.6044 191.415 58.1264ZM217.815 66.1745H203.893C204.558 68.6223 206.589 69.6607 209.1 69.6607C210.947 69.6607 212.424 68.8819 213.236 67.8063L217.077 70.0316C215.341 72.5536 212.571 74 209.026 74C202.822 74 198.908 69.7349 198.908 64.2088C198.908 58.6827 202.859 54.4176 208.657 54.4176C214.122 54.4176 218 58.7569 218 64.2088C218 64.9135 217.926 65.544 217.815 66.1745ZM208.657 58.7198C206.109 58.7198 204.373 60.092 203.819 62.4657H213.236C212.645 59.7953 210.651 58.7198 208.657 58.7198Z" fill="white"/>
<defs>
<filter id="filter0_f_69_2424" x="0.89286" y="0.89286" width="260.214" height="120.214" filterUnits="userSpaceOnUse" color-interpolation-filters="sRGB">
<feFlood flood-opacity="0" result="BackgroundImageFix"/>
<feBlend mode="normal" in="SourceGraphic" in2="BackgroundImageFix" result="shape"/>
<feGaussianBlur stdDeviation="21.5536" result="effect1_foregroundBlur_69_2424"/>
</filter>
<filter id="filter1_f_69_2424" x="39" y="39" width="184" height="44" filterUnits="userSpaceOnUse" color-interpolation-filters="sRGB">
<feFlood flood-opacity="0" result="BackgroundImageFix"/>
<feBlend mode="normal" in="SourceGraphic" in2="BackgroundImageFix" result="shape"/>
<feGaussianBlur stdDeviation="2" result="effect1_foregroundBlur_69_2424"/>
</filter>
<linearGradient id="paint0_linear_69_2424" x1="218" y1="61" x2="44" y2="61" gradientUnits="userSpaceOnUse">
<stop stop-color="#00E08E"/>
<stop offset="0.245723" stop-color="#A2CF7E"/>
<stop offset="0.503459" stop-color="#F0C909"/>
<stop offset="0.754037" stop-color="#FCA016"/>
<stop offset="1" stop-color="#EB3650"/>
</linearGradient>
</defs>
</svg>
