<svg width="72" height="22" viewBox="0 0 72 22" fill="none" xmlns="http://www.w3.org/2000/svg">
<path d="M2.40789 4.16705H2.61211C3.54677 4.16705 4.37236 3.55801 4.64824 2.66499C4.89457 1.86758 5.59035 1.28529 6.41892 1.18522C36.2134 -2.4131 59.0974 2.97542 68.6275 6.78701C69.7049 7.21794 70.2067 8.42711 69.8217 9.52181L69.6229 10.0873C69.3217 10.9436 69.7674 11.8825 70.6211 12.1906C71.408 12.4746 71.8587 13.3015 71.6708 14.1167L71.4326 15.1504C71.2888 15.7747 71.3595 16.4293 71.6335 17.0084L71.6899 17.1277C71.8941 17.5594 72.0251 18.0365 71.9247 18.5034C71.912 18.5622 71.8979 18.6204 71.8824 18.6781C71.3496 20.6589 68.9879 21.6672 66.9724 21.2855C43.604 16.8593 16.145 17.5025 3.96741 18.4918C3.44316 18.5344 3 18.1212 3 17.5952C3 17.1884 2.72587 16.8326 2.33249 16.729L1.56452 16.5266C0.659872 16.2882 0.0572909 15.4343 0.135833 14.502L0.372095 11.6978C0.429531 11.0161 0.999606 10.492 1.68372 10.492H2.29722C2.68536 10.492 3 10.1774 3 9.78926C3 9.40113 2.68536 9.08649 2.29722 9.08649H1.5C0.671573 9.08649 0 8.41491 0 7.58649V6.57495C0 5.2451 1.07805 4.16705 2.40789 4.16705Z" fill="#F0C909"/>
</svg>
