<svg width="41" height="34" viewBox="0 0 41 34" fill="none" xmlns="http://www.w3.org/2000/svg">
<mask id="path-1-inside-1_69_2408" fill="white">
<path d="M11.6147 8.97446C7.76746 8.97446 4.59911 6.02727 4.20306 2.26246C4.16534 1.82514 4.50481 1.46387 4.91971 1.46387H6.23986C6.67362 1.46387 7.01309 1.78711 7.08853 2.20542C7.44685 4.39205 9.33277 6.08431 11.6147 6.08431C13.8967 6.08431 15.7826 4.41106 16.141 2.20542C16.2164 1.78711 16.5559 1.46387 16.9896 1.46387H18.3098C18.7435 1.46387 19.083 1.84415 19.0264 2.26246C18.6304 6.02727 15.4432 8.97446 11.6147 8.97446Z"/>
</mask>
<path d="M11.6147 8.97446C7.76746 8.97446 4.59911 6.02727 4.20306 2.26246C4.16534 1.82514 4.50481 1.46387 4.91971 1.46387H6.23986C6.67362 1.46387 7.01309 1.78711 7.08853 2.20542C7.44685 4.39205 9.33277 6.08431 11.6147 6.08431C13.8967 6.08431 15.7826 4.41106 16.141 2.20542C16.2164 1.78711 16.5559 1.46387 16.9896 1.46387H18.3098C18.7435 1.46387 19.083 1.84415 19.0264 2.26246C18.6304 6.02727 15.4432 8.97446 11.6147 8.97446Z" fill="black"/>
<path d="M4.20306 2.26246L0.217858 2.60618L0.221085 2.64359L0.225013 2.68094L4.20306 2.26246ZM7.08853 2.20542L11.0359 1.55856L11.0307 1.527L11.025 1.49553L7.08853 2.20542ZM16.141 2.20542L12.2045 1.49553L12.1983 1.52971L12.1927 1.564L16.141 2.20542ZM19.0264 2.26246L15.0625 1.72633L15.0546 1.78506L15.0484 1.84399L19.0264 2.26246ZM11.6147 4.97446C9.8642 4.97446 8.36822 3.62261 8.18111 1.84399L0.225013 2.68094C0.829997 8.43193 5.67071 12.9745 11.6147 12.9745V4.97446ZM8.18827 1.91875C8.34948 3.78787 6.87923 5.46387 4.91971 5.46387V-2.53613C2.1304 -2.53613 -0.0187864 -0.137594 0.217858 2.60618L8.18827 1.91875ZM4.91971 5.46387H6.23986V-2.53613H4.91971V5.46387ZM6.23986 5.46387C4.50338 5.46387 3.3766 4.16064 3.15202 2.91532L11.025 1.49553C10.6496 -0.586419 8.84386 -2.53613 6.23986 -2.53613V5.46387ZM3.14118 2.85228C3.80368 6.8951 7.2958 10.0843 11.6147 10.0843V2.08431C11.3698 2.08431 11.09 1.889 11.0359 1.55856L3.14118 2.85228ZM11.6147 10.0843C15.9193 10.0843 19.4262 6.92775 20.0892 2.84684L12.1927 1.564C12.139 1.89438 11.8741 2.08431 11.6147 2.08431V10.0843ZM20.0775 2.91532C19.8529 4.16064 18.7261 5.46387 16.9896 5.46387V-2.53613C14.3856 -2.53613 12.5799 -0.586419 12.2045 1.49553L20.0775 2.91532ZM16.9896 5.46387H18.3098V-2.53613H16.9896V5.46387ZM18.3098 5.46387C16.4219 5.46387 14.7811 3.80697 15.0625 1.72633L22.9903 2.79859C23.3849 -0.11867 21.0651 -2.53613 18.3098 -2.53613V5.46387ZM15.0484 1.84399C14.8619 3.61624 13.3527 4.97446 11.6147 4.97446V12.9745C17.5336 12.9745 22.3988 8.4383 23.0045 2.68094L15.0484 1.84399Z" fill="url(#paint0_linear_69_2408)" fill-opacity="0.15" mask="url(#path-1-inside-1_69_2408)"/>
<mask id="path-3-inside-2_69_2408" fill="white">
<path d="M36.0973 7.5106H34.7771C34.3433 7.5106 34.0039 7.18736 33.9284 6.76905C33.5701 4.58242 31.6842 2.89016 29.4022 2.89016C27.1203 2.89016 25.2343 4.5634 24.876 6.76905C24.8006 7.18736 24.4611 7.5106 24.0273 7.5106H22.7072C22.2734 7.5106 21.934 7.13032 21.9906 6.71201C22.3866 2.9472 25.5549 0 29.4022 0C33.2495 0 36.4179 2.9472 36.8139 6.71201C36.8516 7.13032 36.5122 7.5106 36.0973 7.5106Z"/>
</mask>
<path d="M36.0973 7.5106H34.7771C34.3433 7.5106 34.0039 7.18736 33.9284 6.76905C33.5701 4.58242 31.6842 2.89016 29.4022 2.89016C27.1203 2.89016 25.2343 4.5634 24.876 6.76905C24.8006 7.18736 24.4611 7.5106 24.0273 7.5106H22.7072C22.2734 7.5106 21.934 7.13032 21.9906 6.71201C22.3866 2.9472 25.5549 0 29.4022 0C33.2495 0 36.4179 2.9472 36.8139 6.71201C36.8516 7.13032 36.5122 7.5106 36.0973 7.5106Z" fill="black"/>
<path d="M33.9284 6.76905L29.9811 7.4159L29.9863 7.44747L29.9919 7.47894L33.9284 6.76905ZM24.876 6.76905L28.8125 7.47894L28.8187 7.44476L28.8242 7.41047L24.876 6.76905ZM21.9906 6.71201L25.9545 7.24813L25.9624 7.18941L25.9686 7.13048L21.9906 6.71201ZM36.8139 6.71201L40.7977 6.35279L40.7951 6.32314L40.792 6.29353L36.8139 6.71201ZM36.0973 3.5106H34.7771V11.5106H36.0973V3.5106ZM34.7771 3.5106C36.5136 3.5106 37.6404 4.81382 37.8649 6.05915L29.9919 7.47894C30.3674 9.5609 32.1731 11.5106 34.7771 11.5106V3.5106ZM37.8758 6.12219C37.2133 2.07937 33.7212 -1.10984 29.4022 -1.10984V6.89016C29.6472 6.89016 29.9269 7.08546 29.9811 7.4159L37.8758 6.12219ZM29.4022 -1.10984C25.0976 -1.10984 21.5908 2.04672 20.9278 6.12762L28.8242 7.41047C28.8779 7.08009 29.1429 6.89016 29.4022 6.89016V-1.10984ZM20.9395 6.05915C21.1641 4.81382 22.2909 3.5106 24.0273 3.5106V11.5106C26.6313 11.5106 28.4371 9.5609 28.8125 7.47894L20.9395 6.05915ZM24.0273 3.5106H22.7072V11.5106H24.0273V3.5106ZM22.7072 3.5106C24.595 3.5106 26.2359 5.1675 25.9545 7.24813L18.0266 6.17588C17.6321 9.09314 19.9518 11.5106 22.7072 11.5106V3.5106ZM25.9686 7.13048C26.1557 5.35186 27.6517 4 29.4022 4V-4C23.4582 -4 18.6175 0.542541 18.0125 6.29353L25.9686 7.13048ZM29.4022 4C31.1528 4 32.6488 5.35186 32.8359 7.13048L40.792 6.29353C40.187 0.542537 35.3463 -4 29.4022 -4V4ZM32.8301 7.07122C32.6637 5.22642 34.0832 3.5106 36.0973 3.5106V11.5106C38.9411 11.5106 41.0395 9.03421 40.7977 6.35279L32.8301 7.07122Z" fill="url(#paint1_linear_69_2408)" fill-opacity="0.15" mask="url(#path-3-inside-2_69_2408)"/>
<path d="M3.43068 14.7549C3.14779 14.7549 2.94034 15.0021 2.9592 15.2683C3.54383 20.6493 6.52359 25.2887 10.7858 28.1409V14.7549H3.43068Z" fill="#FF0B4A"/>
<path d="M10.7871 14.7549V28.1409C13.4463 29.9282 16.6146 30.993 20.0281 31.0881V14.7549H10.7871Z" fill="#FF9C00"/>
<path d="M20.0267 31.0881C20.1775 31.0881 20.3473 31.1071 20.4982 31.1071C23.6854 31.1071 26.684 30.2514 29.2488 28.7493V14.7549H20.0078V31.0881H20.0267Z" fill="#F6C900"/>
<path d="M38.0597 15.2427C38.0977 14.9551 37.8696 14.7251 37.5844 14.7251H29.2012V28.8337C34.0296 26.035 37.4324 21.051 38.0597 15.2427Z" fill="#00E586"/>
<g filter="url(#filter0_i_69_2408)">
<path d="M25.2704 8.65186H1.28125L1.53484 12.7092L3.25922 16.6144L7.92518 19.556L13.4026 20.7225L17.8657 20.1646L22.0245 17.8824L24.3575 14.9915L25.2704 11.1877V8.65186Z" fill="white" fill-opacity="0.01"/>
</g>
<mask id="path-10-inside-3_69_2408" fill="white">
<path d="M20.8583 33.9973C9.3919 34.1874 0 24.5282 0 12.9486V12.6063C0 12.207 0.320608 11.8838 0.716651 11.8838H40.2833C40.6794 11.8838 41 12.207 41 12.6063V13.3289C41.0188 24.6043 32.0041 33.8071 20.8583 33.9973ZM3.43238 14.7549C3.14949 14.7549 2.94204 15.0021 2.9609 15.2683C3.94158 24.1479 11.4287 31.0881 20.5 31.0881C29.5713 31.0881 37.0584 24.1479 38.0391 15.2683C38.0768 14.9831 37.8505 14.7549 37.5676 14.7549H3.43238Z"/>
</mask>
<path d="M20.8583 33.9973C9.3919 34.1874 0 24.5282 0 12.9486V12.6063C0 12.207 0.320608 11.8838 0.716651 11.8838H40.2833C40.6794 11.8838 41 12.207 41 12.6063V13.3289C41.0188 24.6043 32.0041 33.8071 20.8583 33.9973ZM3.43238 14.7549C3.14949 14.7549 2.94204 15.0021 2.9609 15.2683C3.94158 24.1479 11.4287 31.0881 20.5 31.0881C29.5713 31.0881 37.0584 24.1479 38.0391 15.2683C38.0768 14.9831 37.8505 14.7549 37.5676 14.7549H3.43238Z" fill="black"/>
<path d="M20.8583 33.9973L20.9246 37.9967L20.9265 37.9967L20.8583 33.9973ZM41 13.3289H37L37 13.3356L41 13.3289ZM2.9609 15.2683L-1.0291 15.551L-1.02355 15.6293L-1.01492 15.7074L2.9609 15.2683ZM38.0391 15.2683L34.0736 14.7439L34.068 14.7865L34.0632 14.8292L38.0391 15.2683ZM20.792 29.9978C11.6796 30.1489 4 22.4142 4 12.9486H-4C-4 26.6422 7.10424 38.2259 20.9246 37.9967L20.792 29.9978ZM4 12.9486V12.6063H-4V12.9486H4ZM4 12.6063C4 14.3852 2.56054 15.8838 0.716651 15.8838V7.88379C-1.91932 7.88379 -4 10.0288 -4 12.6063H4ZM0.716651 15.8838H40.2833V7.88379H0.716651V15.8838ZM40.2833 15.8838C38.4394 15.8838 37 14.3852 37 12.6063H45C45 10.0288 42.9193 7.88379 40.2833 7.88379V15.8838ZM37 12.6063V13.3289H45V12.6063H37ZM37 13.3356C37.0152 22.4464 29.7305 29.8453 20.7901 29.9979L20.9265 37.9967C34.2777 37.7689 45.0224 26.7621 45 13.3222L37 13.3356ZM3.43238 10.7549C0.664175 10.7549 -1.20006 13.1379 -1.0291 15.551L6.9509 14.9856C7.08414 16.8663 5.63481 18.7549 3.43238 18.7549V10.7549ZM-1.01492 15.7074C0.183603 26.5595 9.33524 35.0881 20.5 35.0881V27.0881C13.5222 27.0881 7.69956 21.7363 6.93673 14.8292L-1.01492 15.7074ZM20.5 35.0881C31.6647 35.0881 40.8164 26.5595 42.0149 15.7074L34.0632 14.8292C33.3004 21.7363 27.4778 27.0881 20.5 27.0881V35.0881ZM42.0045 15.7927C42.3961 12.8318 39.9775 10.7549 37.5676 10.7549V18.7549C35.7234 18.7549 33.7575 17.1344 34.0736 14.7439L42.0045 15.7927ZM37.5676 10.7549H3.43238V18.7549H37.5676V10.7549Z" fill="url(#paint2_linear_69_2408)" fill-opacity="0.15" mask="url(#path-10-inside-3_69_2408)"/>
<defs>
<filter id="filter0_i_69_2408" x="1.28125" y="8.65186" width="23.9893" height="12.0708" filterUnits="userSpaceOnUse" color-interpolation-filters="sRGB">
<feFlood flood-opacity="0" result="BackgroundImageFix"/>
<feBlend mode="normal" in="SourceGraphic" in2="BackgroundImageFix" result="shape"/>
<feColorMatrix in="SourceAlpha" type="matrix" values="0 0 0 0 0 0 0 0 0 0 0 0 0 0 0 0 0 0 127 0" result="hardAlpha"/>
<feOffset dy="28"/>
<feGaussianBlur stdDeviation="5.5"/>
<feComposite in2="hardAlpha" operator="arithmetic" k2="-1" k3="1"/>
<feColorMatrix type="matrix" values="0 0 0 0 0 0 0 0 0 0 0 0 0 0 0 0 0 0 0.03 0"/>
<feBlend mode="normal" in2="shape" result="effect1_innerShadow_69_2408"/>
</filter>
<linearGradient id="paint0_linear_69_2408" x1="11.6164" y1="1.46387" x2="11.6164" y2="8.97446" gradientUnits="userSpaceOnUse">
<stop stop-color="#DADADA" stop-opacity="0.66"/>
<stop offset="1" stop-color="#DADADA" stop-opacity="0.35"/>
</linearGradient>
<linearGradient id="paint1_linear_69_2408" x1="29.4006" y1="0" x2="29.4006" y2="7.5106" gradientUnits="userSpaceOnUse">
<stop stop-color="#DADADA" stop-opacity="0.66"/>
<stop offset="1" stop-color="#DADADA" stop-opacity="0.35"/>
</linearGradient>
<linearGradient id="paint2_linear_69_2408" x1="20.5" y1="11.8838" x2="20.5" y2="34" gradientUnits="userSpaceOnUse">
<stop stop-color="#DADADA" stop-opacity="0.66"/>
<stop offset="1" stop-color="#DADADA" stop-opacity="0.35"/>
</linearGradient>
</defs>
</svg>
